<?xml version="1.0" encoding="iso-8859-1"?>
<!-- Generator: Adobe Illustrator 19.0.0, SVG Export Plug-In . SVG Version: 6.00 Build 0)  -->
<svg version="1.1" id="Layer_1" xmlns="http://www.w3.org/2000/svg" xmlns:xlink="http://www.w3.org/1999/xlink" x="0px" y="0px"
	 viewBox="0 0 512 512" style="enable-background:new 0 0 512 512;" xml:space="preserve">
<path style="fill:#CCF7FF;" d="M466.721,217.512c-4.206,0-8.149,1.102-11.576,3.017c-1.901-20.758-19.349-37.019-40.603-37.019
	c-15.898,0-29.66,9.102-36.388,22.374c-6.819-10.008-18.306-16.58-31.329-16.58c-19.826,0-36.085,15.232-37.738,34.63
	c-4.486-10.692-15.051-18.202-27.371-18.202c-16.388,0-29.672,13.285-29.672,29.672s13.285,29.672,29.672,29.672v23.369h185.005
	v-23.369c13.134,0,23.782-10.647,23.782-23.782C490.503,228.159,479.855,217.512,466.721,217.512z"/>
<g style="opacity:0.1;">
	<path d="M276.545,235.403c0-12.013,7.144-22.351,17.41-27.018c-3.734-1.695-7.872-2.654-12.24-2.654
		c-16.388,0-29.672,13.285-29.672,29.672s13.285,29.672,29.672,29.672v23.369h24.502v-23.369
		C289.83,265.075,276.545,251.791,276.545,235.403z"/>
</g>
<polygon style="fill:#FFB64D;" points="490.503,288.444 460.866,492.738 281.679,492.738 252.043,288.444 "/>
<polygon style="opacity:0.1;enable-background:new    ;" points="252.043,288.444 281.679,492.738 326.228,492.738 296.593,288.444 
	"/>
<path style="fill:#707487;" d="M429.265,384.947H313.28c-3.279,0-6.255-1.919-7.609-4.905l-39.943-88.148
	c-1.903-4.202-0.041-9.152,4.161-11.056c4.201-1.902,9.152-0.041,11.056,4.161l37.72,83.244h105.214l37.721-83.244
	c1.904-4.201,6.853-6.064,11.056-4.161c4.202,1.905,6.064,6.854,4.161,11.056l-39.944,88.148
	C435.52,383.028,432.544,384.947,429.265,384.947z"/>
<circle style="fill:#CCF7FF;" cx="313.286" cy="134.674" r="26.819"/>
<path style="opacity:0.1;enable-background:new    ;" d="M304.828,145.095c-9.686-8.227-12.07-21.853-6.496-32.687
	c-7.16,4.816-11.871,12.992-11.871,22.269c0,14.813,12.007,26.82,26.82,26.82c10.401,0,19.413-5.925,23.862-14.58
	C327.426,153.449,314.19,153.047,304.828,145.095z"/>
<circle style="fill:#CCF7FF;" cx="442.625" cy="42.261" r="23"/>
<path style="opacity:0.1;enable-background:new    ;" d="M450.415,56.351c-12.702,0-23-10.298-23-23
	c0-3.669,0.881-7.124,2.409-10.201c-6.153,4.128-10.205,11.145-10.205,19.111c0,12.702,10.298,23,23,23
	c9.034,0,16.829-5.221,20.591-12.799C459.552,54.916,455.151,56.351,450.415,56.351z"/>
<circle style="fill:#CCF7FF;" cx="401.004" cy="107.855" r="23"/>
<path style="opacity:0.1;enable-background:new    ;" d="M409.911,124.174c-12.702,0-23-10.298-23-23
	c0-5.51,1.941-10.562,5.172-14.522c-8.273,3.484-14.082,11.665-14.082,21.205c0,12.702,10.298,23,23,23
	c7.194,0,13.611-3.306,17.828-8.478C416.086,123.534,413.074,124.174,409.911,124.174z"/>
<rect x="21.498" y="118.502" style="fill:#FF6465;" width="216.189" height="55.412"/>
<path style="fill:#AAB1C6;" d="M237.682,161.497H21.498C9.625,161.497,0,171.122,0,182.995c0,11.873,9.625,21.498,21.498,21.498
	h216.185c11.873,0,21.498-9.625,21.498-21.498C259.18,171.122,249.555,161.497,237.682,161.497z"/>
<path style="opacity:0.1;enable-background:new    ;" d="M44.55,182.995c0-11.873,9.625-21.498,21.498-21.498v-42.995h-44.55v42.995
	C9.625,161.497,0,171.122,0,182.995c0,11.873,9.625,21.498,21.498,21.498h44.55C54.175,204.492,44.55,194.867,44.55,182.995z"/>
<path style="fill:#FF6465;" d="M105.367,296.933v171.584c0,13.377,10.845,24.223,24.223,24.223s24.223-10.845,24.223-24.223V296.933
	H105.367z"/>
<path style="opacity:0.1;enable-background:new    ;" d="M130.983,468.517V296.933h-25.616v171.584
	c0,13.377,10.845,24.223,24.223,24.223c4.704,0,9.092-1.345,12.808-3.665C135.545,484.794,130.983,477.189,130.983,468.517z"/>
<rect x="105.371" y="204.494" style="fill:#AAB1C6;" width="48.445" height="112.032"/>
<rect x="105.371" y="204.494" style="opacity:0.1;enable-background:new    ;" width="25.616" height="112.032"/>
<path style="fill:#707487;" d="M95.679,182.995v27.512c0,18.729,15.183,33.911,33.911,33.911l0,0
	c18.729,0,33.911-15.183,33.911-33.911v-27.512H95.679z"/>
<path style="opacity:0.1;enable-background:new    ;" d="M119.067,210.506v-27.512H95.679v27.512
	c0,18.729,15.183,33.911,33.911,33.911l0,0c4.11,0,8.049-0.732,11.694-2.072C128.318,237.583,119.067,225.125,119.067,210.506z"/>
<path style="fill:#FFD782;" d="M490.503,265.075h-238.46c-11.873,0-21.498,9.625-21.498,21.498s9.625,21.498,21.498,21.498h238.46
	c11.873,0,21.498-9.625,21.498-21.498C512,274.7,502.375,265.075,490.503,265.075z"/>
<path style="opacity:0.1;enable-background:new    ;" d="M263.958,286.573c0-11.873,9.625-21.498,21.498-21.498h-33.412
	c-11.873,0-21.498,9.625-21.498,21.498s9.625,21.498,21.498,21.498h33.412C273.583,308.07,263.958,298.445,263.958,286.573z"/>
<g>
</g>
<g>
</g>
<g>
</g>
<g>
</g>
<g>
</g>
<g>
</g>
<g>
</g>
<g>
</g>
<g>
</g>
<g>
</g>
<g>
</g>
<g>
</g>
<g>
</g>
<g>
</g>
<g>
</g>
</svg>
