<svg height="512pt" viewBox="0 0 512 512" width="512pt" xmlns="http://www.w3.org/2000/svg"><path d="m361 497h-271.800781c-18.296875-37.199219-28.199219-79.601562-28.199219-121v-15l135-27.898438 9.902344-2.101562 125.097656 30v15c0 71.398438 30 110.5 30 121zm0 0" fill="#ffcebf"/><path d="m361 497h-165v-163.898438l9.902344-2.101562 125.097656 30v15c0 71.398438 30 110.5 30 121zm0 0" fill="#ffbfab"/><path d="m271.015625 512c-5.507813 0-10.796875-3.03125-13.433594-8.289062l-3.164062-6.328126c-9.039063-18.0625-16.039063-38.195312-20.816407-57.835937-1.960937-8.058594 2.988282-16.175781 11.03125-18.121094 7.984376-2.023437 16.15625 2.972657 18.121094 11.027344 4.230469 17.460937 10.457032 35.453125 18.5 51.511719l3.164063 6.324218c3.707031 7.414063.703125 16.421876-6.707031 20.128907-2.15625 1.070312-4.441407 1.582031-6.695313 1.582031zm0 0" fill="#f89580"/><path d="m181.015625 512c-5.507813 0-10.796875-3.03125-13.433594-8.289062l-3.164062-6.328126c-9.039063-18.0625-16.039063-38.195312-20.816407-57.835937-1.960937-8.058594 2.988282-16.175781 11.03125-18.121094 8.027344-2.023437 16.15625 2.972657 18.121094 11.027344 4.230469 17.460937 10.457032 35.453125 18.5 51.511719l3.164063 6.324218c3.707031 7.414063.703125 16.421876-6.707031 20.128907-2.15625 1.070312-4.441407 1.582031-6.695313 1.582031zm0 0" fill="#ffa78f"/><path d="m512 497c0 8.402344-6.597656 15-15 15h-482c-8.402344 0-15-6.597656-15-15s6.597656-15 15-15h482c8.402344 0 15 6.597656 15 15zm0 0" fill="#c6e2e7"/><path d="m497 271c-24.902344 0-46-20.097656-46-45 0-8.402344-6.597656-15-15-15s-15 6.597656-15 15c0 24.902344-20.097656 45-45 45-8.402344 0-15 6.597656-15 15s6.597656 15 15 15c24.902344 0 45 20.097656 45 45 0 8.402344 6.597656 15 15 15s15-6.597656 15-15c0-24.902344 21.097656-45 46-45 8.402344 0 15-6.597656 15-15s-6.597656-15-15-15zm0 0" fill="#ffd400"/><path d="m512 286c0 8.402344-6.597656 15-15 15-24.902344 0-46 20.097656-46 45 0 8.402344-6.597656 15-15 15v-150c8.402344 0 15 6.597656 15 15 0 24.902344 21.097656 45 46 45 8.402344 0 15 6.597656 15 15zm0 0" fill="#fdbf00"/><path d="m406 151c-24.902344 0-45-20.097656-45-45 0-8.402344-6.597656-15-15-15s-15 6.597656-15 15c0 24.902344-20.097656 45-45 45-8.402344 0-15 6.597656-15 15s6.597656 15 15 15c24.902344 0 45 20.097656 45 45 0 8.402344 6.597656 15 15 15s15-6.597656 15-15c0-24.902344 20.097656-45 45-45 8.402344 0 15-6.597656 15-15s-6.597656-15-15-15zm0 0" fill="#ffd400"/><path d="m421 166c0 8.402344-6.597656 15-15 15-24.902344 0-45 20.097656-45 45 0 8.402344-6.597656 15-15 15v-150c8.402344 0 15 6.597656 15 15 0 24.902344 20.097656 45 45 45 8.402344 0 15 6.597656 15 15zm0 0" fill="#fdbf00"/><path d="m241 45v196l-45 30-45-30v-196c0-24.902344 20.097656-45 45-45s45 20.097656 45 45zm0 0" fill="#fdbf00"/><path d="m241 241-45 30v-271c24.902344 0 45 20.097656 45 45zm0 0" fill="#ff9f00"/><path d="m512 497c0 8.402344-6.597656 15-15 15h-301v-30h301c8.402344 0 15 6.597656 15 15zm0 0" fill="#a8d3d8"/><path d="m331 346v15h-270v-15c0-24.902344 20.097656-45 45-45s45-20.097656 45-45v-15h90v15c0 24.902344 20.097656 45 45 45s45 20.097656 45 45zm0 0" fill="#ec5569"/><path d="m331 361h-135v-120h45v15c0 24.902344 20.097656 45 45 45s45 20.097656 45 45zm0 0" fill="#cc2e43"/></svg>