<?xml version="1.0"?>
<svg xmlns="http://www.w3.org/2000/svg" viewBox="0 0 64 64" width="512" height="512"><g id="flat"><rect x="5" y="29" width="54" height="32" style="fill:#73cac2"/><circle cx="32" cy="45" r="11" style="fill:#fff"/><polygon points="38 43 34 43 34 39 30 39 30 43 26 43 26 47 30 47 30 51 34 51 34 47 38 47 38 43" style="fill:#e4544f"/><polygon points="56 58 49 58 49 56 54 56 54 52 56 52 56 58" style="fill:#fff"/><rect x="54" y="48" width="2" height="2" style="fill:#fff"/><rect x="3" y="17" width="58" height="12" style="fill:#4da19a"/><rect x="6" y="20" width="2" height="2" style="fill:#fff"/><rect x="10" y="20" width="2" height="2" style="fill:#fff"/><path d="M15,3H49a2,2,0,0,1,2,2v6a0,0,0,0,1,0,0H13a0,0,0,0,1,0,0V5A2,2,0,0,1,15,3Z" style="fill:#4da19a"/><rect x="13" y="11" width="8" height="6" style="fill:#2f3e4f"/><rect x="43" y="11" width="8" height="6" style="fill:#2f3e4f"/><rect x="21" y="3" width="22" height="4" style="fill:#2f3e4f"/></g></svg>
