<?xml version="1.0"?>
<svg xmlns="http://www.w3.org/2000/svg" viewBox="0 0 64 64" width="512" height="512"><g id="flat"><path d="M7,28H57a0,0,0,0,1,0,0V50a8,8,0,0,1-8,8H15a8,8,0,0,1-8-8V28A0,0,0,0,1,7,28Z" style="fill:#dd3e46"/><path d="M11,18H53a8,8,0,0,1,8,8v2a0,0,0,0,1,0,0H3a0,0,0,0,1,0,0V26A8,8,0,0,1,11,18Z" style="fill:#f1c056"/><path d="M16,14v4h6V14a2,2,0,0,1,2-2H40a2,2,0,0,1,2,2v4h6V14a8,8,0,0,0-8-8H24A8,8,0,0,0,16,14Z" style="fill:#b11e48"/><rect x="11" y="18" width="8" height="10" style="fill:#e97131"/><path d="M11,28h8a0,0,0,0,1,0,0v4a4,4,0,0,1-4,4h0a4,4,0,0,1-4-4V28A0,0,0,0,1,11,28Z" style="fill:#f98c96"/><path d="M45,28h8a0,0,0,0,1,0,0v4a4,4,0,0,1-4,4h0a4,4,0,0,1-4-4V28a0,0,0,0,1,0,0Z" style="fill:#f98c96"/><rect x="45" y="18" width="8" height="10" style="fill:#e97131"/><circle cx="32" cy="43" r="11" style="fill:#fff"/><polygon points="39 41 34 41 34 36 30 36 30 41 25 41 25 45 30 45 30 50 34 50 34 45 39 45 39 41" style="fill:#dd3e46"/><rect x="10" y="48" width="2" height="2" style="fill:#f1c056"/><rect x="13" y="51" width="2" height="2" style="fill:#f1c056"/><rect x="28" y="18" width="8" height="4" style="fill:#b11e48"/></g></svg>
