<svg height="512pt" viewBox="-1 0 512 512" width="512pt" xmlns="http://www.w3.org/2000/svg"><path d="m75.71875 512c-13.371094 0-24.210938-10.839844-24.210938-24.210938v-21.117187h48.421876v21.117187c-.003907 13.371094-10.839844 24.210938-24.210938 24.210938zm0 0" fill="#5a5a7a"/><path d="m337.640625 512h-.128906c-13.367188 0-24.335938-11.207031-24.335938-24.578125v-20.75h48.417969v20.75c0 13.371094-10.582031 24.578125-23.953125 24.578125zm0 0" fill="#5a5a7a"/><path d="m367.773438 476.972656h-336.867188c-17.070312 0-30.90625-13.835937-30.90625-30.902344v-415.164062c0-17.070312 13.835938-30.90625 30.90625-30.90625h336.867188c17.070312 0 30.90625 13.835938 30.90625 30.90625v415.160156c0 17.070313-13.835938 30.90625-30.90625 30.90625zm0 0" fill="#b3eaf2"/><path d="m427.523438 476.972656c-15.929688 0-28.84375-12.914062-28.84375-28.84375v-419.285156c0-15.929688 12.914062-28.84375 28.84375-28.84375 15.933593 0 28.847656 12.914062 28.847656 28.84375v419.285156c0 15.929688-12.914063 28.84375-28.847656 28.84375zm0 0" fill="#1bd2db"/><path d="m357.472656 440.917969h-316.265625c-2.84375 0-5.152343-2.304688-5.152343-5.152344v-394.558594c0-2.84375 2.308593-5.152343 5.152343-5.152343h316.265625c2.84375 0 5.152344 2.308593 5.152344 5.152343v394.558594c-.003906 2.84375-2.308594 5.152344-5.152344 5.152344zm0 0" fill="#0c9dbf"/><path d="m460.492188 333.265625h-3.605469c-4.269531 0-7.726563-3.460937-7.726563-7.726563 0-4.269531 3.457032-7.726562 7.726563-7.726562h3.605469c18.460937 0 33.480468-15.019531 33.480468-33.480469v-91.6875c0-18.460937-15.019531-33.480469-33.480468-33.480469h-3.605469c-4.269531 0-7.726563-3.460937-7.726563-7.726562s3.457032-7.726562 7.726563-7.726562h3.605469c26.980468 0 48.933593 21.953124 48.933593 48.933593v91.6875c0 26.980469-21.953125 48.933594-48.933593 48.933594zm0 0" fill="#1bd2db"/><path d="m265.367188 440.917969h-132.054688c-18.023438 0-33.957031-11.714844-39.332031-28.914063l-9.476563-30.328125c-1.035156-3.320312 1.441406-6.6875 4.917969-6.6875h219.835937c3.476563 0 5.953126 3.367188 4.917969 6.6875l-9.480469 30.328125c-5.375 17.199219-21.304687 28.914063-39.328124 28.914063zm0 0" fill="#fff"/><path d="m311.886719 248.789062h-155.042969v-72.113281h144.742188c5.6875 0 10.300781 4.613281 10.300781 10.300781zm0 0" fill="#ffe36c"/><path d="m311.910156 186.976562v61.8125h-30.90625v-61.8125c0-5.6875-4.613281-10.300781-10.300781-10.300781h30.902344c5.6875 0 10.304687 4.613281 10.304687 10.300781zm0 0" fill="#f2c841"/><path d="m187.75 248.789062h-100.957031v-116.410156c0-5.691406 4.609375-10.300781 10.300781-10.300781h80.355469c5.6875 0 10.300781 4.609375 10.300781 10.300781zm0 0" fill="#fcb670"/><path d="m187.773438 132.378906v116.410156h-30.902344v-116.410156c0-5.6875-4.617188-10.304687-10.304688-10.304687h30.90625c5.6875 0 10.300782 4.617187 10.300782 10.304687zm0 0" fill="#f79d52"/><path d="m36.054688 238.488281h326.566406v36.054688h-326.566406zm0 0" fill="#1bd2db"/><path d="m456.371094 28.84375v419.285156c0 15.925782-12.917969 28.84375-28.847656 28.84375-5.683594 0-10.980469-1.648437-15.453126-4.5 8.046876-5.101562 13.394532-14.105468 13.394532-24.34375v-419.285156c0-7.960938-3.234375-15.171875-8.449219-20.398438-1.492187-1.492187-3.152344-2.820312-4.945313-3.945312 4.472657-2.851562 9.769532-4.5 15.453126-4.5 7.964843 0 15.175781 3.234375 20.398437 8.445312 5.214844 5.226563 8.449219 12.4375 8.449219 20.398438zm0 0" fill="#00b8d1"/><path d="m314.175781 381.671875-9.480469 30.328125c-5.375 17.203125-21.300781 28.917969-39.332031 28.917969h-30.902343c18.027343 0 33.953124-11.714844 39.332031-28.917969l9.476562-30.328125c1.039063-3.316406-1.441406-6.6875-4.914062-6.6875h30.90625c3.46875 0 5.953125 3.371094 4.914062 6.6875zm0 0" fill="#e5e5e5"/></svg>