<?xml version="1.0" encoding="iso-8859-1"?>
<!-- Generator: Adobe Illustrator 21.0.0, SVG Export Plug-In . SVG Version: 6.00 Build 0)  -->
<svg xmlns="http://www.w3.org/2000/svg" xmlns:xlink="http://www.w3.org/1999/xlink" version="1.1" id="Capa_1" x="0px" y="0px" viewBox="0 0 504.499 504.499" style="enable-background:new 0 0 504.499 504.499;" xml:space="preserve" width="512" height="512">
<g>
	<path style="fill:#CAE8F9;" d="M451.049,473.614H53.45V6c0-3.314,2.686-6,6-6h385.599c3.314,0,6,2.686,6,6V473.614z"/>
	<path style="fill:#AADBF6;" d="M445.049,0h-22c3.314,0,6,2.686,6,6v467.614h22V6C451.049,2.686,448.363,0,445.049,0z"/>
	<rect x="136.282" y="155.916" style="fill:#787780;" width="231.934" height="317.698"/>
	<g>
		<circle style="fill:#18A7FC;" cx="94.865" cy="265.064" r="16.567"/>
		<circle style="fill:#18A7FC;" cx="94.865" cy="331.331" r="16.567"/>
	</g>
	<path style="fill:#787780;" d="M312.516,82.833H191.983c-3.314,0-6-2.686-6-6V55.699c0-3.314,2.686-6,6-6h120.533   c3.314,0,6,2.686,6,6v21.134C318.516,80.146,315.83,82.833,312.516,82.833z"/>
	<rect x="235.683" y="155.916" style="fill:#57555C;" width="33.134" height="317.702"/>
	<path style="fill:#32D736;" d="M127.807,82.833h16.952c3.717,0,6.134-3.911,4.472-7.236l-8.475-16.953   c-1.842-3.685-7.102-3.686-8.944,0l-8.477,16.953C121.673,78.921,124.09,82.833,127.807,82.833z"/>
	<path style="fill:#FD4E26;" d="M376.692,49.699h-16.952c-3.717,0-6.134,3.911-4.472,7.236l8.475,16.953   c1.842,3.685,7.102,3.686,8.944,0l8.477-16.953C382.826,53.611,380.408,49.699,376.692,49.699z"/>
	<path style="fill:#FEDB41;" d="M461.614,463.866H42.884c-3.314,0-6,2.686-6,6v27.132h430.73v-27.132   C467.614,466.552,464.928,463.866,461.614,463.866z"/>
	<path style="fill:#FCBF29;" d="M461.614,463.866h-22c3.314,0,6,2.686,6,6v27.132h22v-27.132   C467.614,466.552,464.928,463.866,461.614,463.866z"/>
	<path style="fill:#787780;" d="M484.181,489.499H20.318c-4.142,0-7.5,3.358-7.5,7.5c0,4.142,3.358,7.5,7.5,7.5h463.863   c4.142,0,7.5-3.358,7.5-7.5C491.681,492.857,488.323,489.499,484.181,489.499z"/>
	<path style="fill:#57555C;" d="M312.516,49.699h-22c3.314,0,6,2.686,6,6v21.134c0,3.314-2.686,6-6,6h22c3.314,0,6-2.686,6-6V55.699   C318.516,52.385,315.83,49.699,312.516,49.699z"/>
	<path style="fill:#FEDB41;" d="M119.717,159.666v-21.132c0-3.314,2.686-6,6-6h253.066c3.314,0,6,2.686,6,6v21.132   c0,3.314-2.686,6-6,6H125.717C122.403,165.666,119.717,162.979,119.717,159.666z"/>
	<path style="fill:#FCBF29;" d="M378.782,132.533h-22c3.314,0,6,2.686,6,6v21.134c0,3.314-2.686,6-6,6h22c3.314,0,6-2.686,6-6   v-21.134C384.782,135.219,382.096,132.533,378.782,132.533z"/>
</g>















</svg>
