<?xml version="1.0" encoding="iso-8859-1"?>
<!-- Generator: Adobe Illustrator 19.0.0, SVG Export Plug-In . SVG Version: 6.00 Build 0)  -->
<svg version="1.1" id="Capa_1" xmlns="http://www.w3.org/2000/svg" xmlns:xlink="http://www.w3.org/1999/xlink" x="0px" y="0px"
	 viewBox="0 0 409.6 409.6" style="enable-background:new 0 0 409.6 409.6;" xml:space="preserve">
<path style="fill:#64798A;" d="M239.787,165.763c-9.668-8.947-15.757-21.087-15.757-34.259v-17.862v-0.59H185.57v0.59v17.862
	c0,13.172-6.089,25.312-15.757,34.259c-9.74,9.013-15.281,21.685-15.281,34.965v146.993c0,16.195,100.535,16.195,100.535,0V200.728
	C255.067,187.448,249.526,174.776,239.787,165.763z"/>
<path style="fill:#EBF0F3;" d="M224.029,73.681c0.265-0.191,0.464-0.457,0.464-0.807V60.678c0-0.35-0.199-0.616-0.464-0.806v-5.38
	c0-2.628-2.13-4.759-4.757-4.759h-28.945c-2.627,0-4.757,2.13-4.757,4.759v5.38c-0.265,0.19-0.464,0.456-0.464,0.806v12.196
	c0,0.351,0.199,0.615,0.464,0.807v45.392c12.819-2.556,25.64-2.556,38.459,0V73.681z"/>
<g>
	<rect x="185.549" y="56.934" style="fill:#DC8744;" width="38.456" height="1.3"/>
	<rect x="185.549" y="76.022" style="fill:#DC8744;" width="38.456" height="1.3"/>
</g>
<path style="fill:#FFFFFF;" d="M242.12,234.251c-29.013-3.051-45.633-3.064-74.643-0.002c-2.438,0.258-4.308,2.326-4.308,4.777
	v80.331c0,2.452,1.872,4.521,4.313,4.776c29.007,3.036,45.626,3.047,74.637,0.002c2.44-0.256,4.312-2.324,4.312-4.777v-80.329
	C246.431,236.575,244.559,234.507,242.12,234.251z"/>
<g>
	<path style="fill:#DC8744;" d="M204.829,319.475c-9.961,0-19.915-0.567-33.278-1.901l-1.443-0.142V240.95l1.443-0.146
		c26.653-2.676,39.746-2.681,66.5,0.005l1.442,0.146v76.482l-1.442,0.142C224.723,318.908,214.787,319.475,204.829,319.475z
		 M173.31,314.53c25.068,2.443,37.986,2.439,62.98,0.004v-70.681c-25.094-2.456-37.986-2.452-62.98-0.004V314.53z"/>
	<ellipse style="fill:#DC8744;" cx="204.8" cy="279.194" rx="16.901" ry="20.28"/>
</g>
<path style="fill:#E56353;" d="M349.616,59.985c-79.98-79.981-209.652-79.979-289.631,0c-79.98,79.98-79.98,209.65,0,289.63
	c79.979,79.979,209.651,79.981,289.631,0C429.595,269.637,429.595,139.963,349.616,59.985z M81.049,81.049
	c64.794-64.794,167.732-68.117,236.492-10.054L70.996,317.541C12.932,248.781,16.254,145.844,81.049,81.049z M92.059,338.605
	L338.606,92.059c58.062,68.76,54.74,171.698-10.054,236.493C263.756,393.347,160.819,396.667,92.059,338.605z"/>
<g>
</g>
<g>
</g>
<g>
</g>
<g>
</g>
<g>
</g>
<g>
</g>
<g>
</g>
<g>
</g>
<g>
</g>
<g>
</g>
<g>
</g>
<g>
</g>
<g>
</g>
<g>
</g>
<g>
</g>
</svg>
