<svg height="512pt" viewBox="0 0 512 512" width="512pt" xmlns="http://www.w3.org/2000/svg"><path d="m301 121v-30h-30v120h-135c-8.402344 0-15-6.601562-15-15v-15h-30v15c0 19.5 12.597656 36 30 42.300781v152.699219h90v-60h60v60h90v-180h60v-90zm0 0" fill="#5a5a5a"/><path d="m421 121v90h-60v180h-90v-60h-15v-120h15v-120h30v30zm0 0" fill="#444"/><path d="m256 0c-141 0-256 115-256 256s115 256 256 256 256-115 256-256-115-256-256-256zm0 482c-124.199219 0-226-101.5-226-226 0-55.199219 20.800781-107.101562 56.800781-147.898438l317.097657 317.097657c-40.796876 36-92.699219 56.800781-147.898438 56.800781zm169.199219-78.101562-317.097657-317.097657c40.796876-36 92.699219-56.800781 147.898438-56.800781 124.199219 0 226 101.5 226 226 0 55.199219-20.800781 107.101562-56.800781 147.898438zm0 0" fill="#ff6c6c"/><path d="m512 256c0 141-115 256-256 256v-30c55.199219 0 107.101562-20.800781 147.898438-56.800781l-147.898438-147.898438v-42.601562l169.199219 169.199219c36-40.796876 56.800781-92.699219 56.800781-147.898438 0-124.5-101.800781-226-226-226v-30c141 0 256 115 256 256zm0 0" fill="#ff4949"/></svg>