<svg height="464pt" viewBox="0 0 464 464" width="464pt" xmlns="http://www.w3.org/2000/svg"><path d="m464 232c0 128.128906-103.871094 232-232 232s-232-103.871094-232-232 103.871094-232 232-232 232 103.871094 232 232zm0 0" fill="#dd3e46"/><path d="m360 80-280 280c-26.558594-32.960938-48-82.398438-48-128 0-106 94-200 200-200 45.601562 0 95.039062 21.441406 128 48zm0 0" fill="#fff"/><path d="m432 232c0 106-94 200-200 200-46.777344-1.53125-91.75-18.398438-128-48l280-280c29.601562 36.25 46.46875 81.222656 48 128zm0 0" fill="#fff"/><g fill="#394d5c"><path d="m232 208-48 48h-40v-48zm0 0"/><path d="m384 208v48h-152l48-48zm0 0"/><path d="m112 256h-32v-48h32zm0 0"/><path d="m80 184c-4.417969 0-8-3.582031-8-8 0-.617188.847656-59.199219 71.128906-63.71875-.90625-10.515625 1.960938-21.007812 8.085938-29.601562 6.148437-7.222657 15.3125-11.171876 24.785156-10.679688 4.417969 0 8 3.582031 8 8s-3.582031 8-8 8c-4.648438-.417969-9.230469 1.359375-12.382812 4.800781-4.371094 7.796875-5.714844 16.9375-3.769532 25.664063.460938 2.34375-.15625 4.773437-1.671875 6.617187-1.519531 1.847657-3.785156 2.917969-6.175781 2.917969-63.273438 0-64 46.039062-64 48 0 4.417969-3.582031 8-8 8zm0 0"/><path d="m112 183.894531h-.183594c-4.324218-.054687-7.804687-3.570312-7.816406-7.894531 0-.320312.550781-32 48-32 40 0 40-8 40-24 0-4.417969 3.582031-8 8-8 .960938 0 24-.335938 24-16 0-15.199219-6.167969-16-24-16-4.417969 0-8-3.582031-8-8s3.582031-8 8-8c14.960938 0 40 0 40 32 0 21.152344-18.265625 29.296875-32.34375 31.398438-2.703125 27.34375-21.410156 32.601562-55.65625 32.601562-30.34375 0-31.921875 14.519531-32 16.175781-.199219 4.289063-3.707031 7.675781-8 7.71875zm0 0"/></g></svg>