<?xml version="1.0" encoding="iso-8859-1"?>
<!-- Generator: Adobe Illustrator 19.0.0, SVG Export Plug-In . SVG Version: 6.00 Build 0)  -->
<svg version="1.1" id="Layer_1" xmlns="http://www.w3.org/2000/svg" xmlns:xlink="http://www.w3.org/1999/xlink" x="0px" y="0px"
	 viewBox="0 0 512 512" style="enable-background:new 0 0 512 512;" xml:space="preserve">
<g>
	<g>
		<path style="fill:#25C3AB;" d="M256,0C114.609,0,0,114.617,0,256c0,61.158,21.522,117.23,57.3,161.254L417.271,57.291
			C373.239,21.504,317.158,0,256,0"/>
		<path style="fill:#25C3AB;" d="M454.75,94.698L94.699,454.749c44.023,35.778,100.149,57.247,161.298,57.247
			c141.391,0,256-114.609,256-256C511.996,194.847,490.528,138.721,454.75,94.698"/>
	</g>
	<path style="fill:#50CFBC;" d="M256,512c4.44,0,8.854-0.115,13.241-0.335C134.012,504.77,26.483,392.942,26.483,256
		S134.012,7.23,269.241,0.335C264.854,0.115,260.44,0,256,0C114.609,0,0,114.617,0,256S114.609,512,256,512"/>
	<path style="fill:#1C9280;" d="M256,0c-4.44,0-8.854,0.115-13.241,0.335C377.988,7.23,485.517,119.058,485.517,256
		S377.988,504.77,242.759,511.665C247.146,511.885,251.56,512,256,512c141.391,0,256-114.617,256-256S397.391,0,256,0"/>
	<path style="fill:#E64C3C;" d="M417.302,57.25L57.251,417.301c11.167,13.736,23.711,26.289,37.447,37.447L454.749,94.697
		C443.591,80.961,431.038,68.409,417.302,57.25"/>
	<g>
		<path style="fill:#136255;" d="M162.276,242.905c4.626,20.171,13.18,37.305,20.277,49.099l170.549-170.558
			c0,0,10.487-86.14-97.103-86.14c-107.582,0-97.103,79.448-97.103,79.448v51.059c-5.376,4.846-8.828,11.802-8.828,19.562v35.31
			C150.067,229.999,154.967,238.182,162.276,242.905"/>
		<path style="fill:#136255;" d="M413.31,412.422l-78.76-42.955c-10.328-5.632-16.755-16.463-16.755-28.231v-32.274
			c0,0,23.111-27.639,31.929-66.057c7.309-4.723,12.209-12.915,12.209-22.219v-33.174L94.74,454.706
			c44.023,35.787,100.105,57.291,161.262,57.291c71.389,0,135.918-29.246,182.351-76.376
			C432.087,426.14,423.647,418.063,413.31,412.422"/>
	</g>
</g>
<g>
</g>
<g>
</g>
<g>
</g>
<g>
</g>
<g>
</g>
<g>
</g>
<g>
</g>
<g>
</g>
<g>
</g>
<g>
</g>
<g>
</g>
<g>
</g>
<g>
</g>
<g>
</g>
<g>
</g>
</svg>
