<?xml version="1.0" encoding="utf-8"?>
<!-- Generator: Adobe Illustrator 22.0.0, SVG Export Plug-In . SVG Version: 6.00 Build 0)  -->
<svg xmlns="http://www.w3.org/2000/svg" xmlns:xlink="http://www.w3.org/1999/xlink" version="1.1" id="Layer_2" x="0px" y="0px" viewBox="0 0 256 256" style="enable-background:new 0 0 256 256;" xml:space="preserve" width="512" height="512">
<style type="text/css">
	.st0{fill:#87796F;}
	.st1{fill:#3A312A;}
	.st2{fill:#D7E057;}
	.st3{fill:#F16C7A;}
	.st4{fill:#8AC6DD;}
	.st5{fill:#FCE8CB;}
	.st6{fill:#695B51;}
	.st7{fill:#D34E5C;}
	.st8{fill:#6CA8BF;}
	.st9{fill:#B9C239;}
	.st10{fill:#DECAAD;}
	.st11{fill:#B9BC39;}
	.st12{fill-rule:evenodd;clip-rule:evenodd;fill:#87796F;}
	.st13{fill-rule:evenodd;clip-rule:evenodd;fill:#FCE8CB;}
	.st14{fill-rule:evenodd;clip-rule:evenodd;fill:#F16C7A;}
	.st15{fill:#F5978A;}
</style>
<g>
	<g>
		<g>
			<path class="st0" d="M28.32,87.436v143.624c0,4.699,3.809,8.509,8.508,8.509h182.53c4.699,0,8.509-3.809,8.509-8.509V87.436     H28.32z"/>
		</g>
	</g>
	<g>
		<g>
			<path class="st1" d="M227.867,85.936H28.32c-0.828,0-1.5,0.671-1.5,1.5v81.72c0,0.829,0.672,1.5,1.5,1.5s1.5-0.671,1.5-1.5     v-80.22h196.547V231.06c0,3.865-3.145,7.009-7.009,7.009H36.828c-3.864,0-7.008-3.144-7.008-7.009v-45.079     c0-0.829-0.672-1.5-1.5-1.5s-1.5,0.671-1.5,1.5v45.079c0,5.519,4.489,10.009,10.008,10.009h182.53     c5.519,0,10.009-4.49,10.009-10.009V87.436C229.367,86.608,228.695,85.936,227.867,85.936z"/>
		</g>
	</g>
	<g>
		<g>
			<path class="st0" d="M231.148,63.613H24.852c-4.699,0-8.509,3.809-8.509,8.509v6.806c0,4.699,3.81,8.509,8.509,8.509h206.296     c4.699,0,8.509-3.809,8.509-8.509v-6.806C239.657,67.423,235.847,63.613,231.148,63.613z"/>
		</g>
	</g>
	<g>
		<g>
			<path class="st1" d="M231.148,62.113H24.852c-5.519,0-10.008,4.49-10.008,10.008v6.806c0,5.519,4.489,10.009,10.008,10.009     h206.297c5.519,0,10.008-4.49,10.008-10.009v-6.806C241.156,66.603,236.667,62.113,231.148,62.113z M238.156,78.928     c0,3.865-3.144,7.009-7.008,7.009H24.852c-3.864,0-7.008-3.144-7.008-7.009v-6.806c0-3.864,3.144-7.008,7.008-7.008h206.297     c3.864,0,7.008,3.144,7.008,7.008V78.928z"/>
		</g>
	</g>
	<g>
		<g>
			<path class="st0" d="M219.382,39.569H36.805c-4.699,0-8.508,3.809-8.508,8.508v15.315H227.89V48.078     C227.89,43.378,224.081,39.569,219.382,39.569z"/>
		</g>
	</g>
	<g>
		<g>
			<path class="st1" d="M219.382,38.069H36.805c-5.519,0-10.008,4.49-10.008,10.008v15.315c0,0.829,0.672,1.5,1.5,1.5h199.594     c0.828,0,1.5-0.671,1.5-1.5V48.078C229.391,42.559,224.9,38.069,219.382,38.069z M226.391,61.892H29.797V48.078     c0-3.864,3.144-7.008,7.008-7.008h182.577c3.864,0,7.009,3.144,7.009,7.008V61.892z"/>
		</g>
	</g>
	<g>
		<g>
			<path class="st4" d="M60.737,16.431H44.95c-3.994,0-7.231,3.237-7.231,7.231v15.907h30.249V23.662     C67.968,19.668,64.73,16.431,60.737,16.431z"/>
		</g>
	</g>
	<g>
		<g>
			<path class="st1" d="M60.736,14.931H44.95c-4.814,0-8.731,3.917-8.731,8.731v15.907c0,0.829,0.672,1.5,1.5,1.5h30.249     c0.828,0,1.5-0.671,1.5-1.5V23.662C69.468,18.848,65.551,14.931,60.736,14.931z M66.468,38.069H39.219V23.662     c0-3.16,2.571-5.731,5.731-5.731h15.786c3.16,0,5.731,2.571,5.731,5.731V38.069z"/>
		</g>
	</g>
	<g>
		<g>
			<path class="st3" d="M211.237,16.431H195.45c-3.994,0-7.231,3.237-7.231,7.231v15.907h30.249V23.662     C218.468,19.668,215.23,16.431,211.237,16.431z"/>
		</g>
	</g>
	<g>
		<g>
			<path class="st1" d="M211.236,14.931H195.45c-4.814,0-8.731,3.917-8.731,8.731v15.907c0,0.829,0.672,1.5,1.5,1.5h30.249     c0.828,0,1.5-0.671,1.5-1.5V23.662C219.968,18.848,216.051,14.931,211.236,14.931z M216.968,38.069h-27.249V23.662     c0-3.16,2.571-5.731,5.731-5.731h15.786c3.16,0,5.731,2.571,5.731,5.731V38.069z"/>
		</g>
	</g>
	<g>
		<g>
			<path class="st2" d="M189.563,109.276H66.624c-5.247,0-9.5,4.253-9.5,9.5v89.453c0,5.247,4.253,9.5,9.5,9.5h122.939     c5.247,0,9.5-4.253,9.5-9.5v-89.453C199.063,113.53,194.81,109.276,189.563,109.276z"/>
		</g>
	</g>
	<g>
		<g>
			<path class="st1" d="M189.563,107.776h-26.687c-0.828,0-1.5,0.671-1.5,1.5c0,0.829,0.672,1.5,1.5,1.5h26.687c4.411,0,8,3.589,8,8     v89.453c0,4.412-3.589,8-8,8H66.624c-4.412,0-8.001-3.589-8.001-8v-89.453c0-4.411,3.589-8,8.001-8h80.021     c0.828,0,1.5-0.671,1.5-1.5c0-0.829-0.672-1.5-1.5-1.5H66.624c-6.066,0-11.001,4.935-11.001,11v89.453     c0,6.066,4.935,11,11.001,11h122.939c6.065,0,11-4.935,11-11v-89.453C200.563,112.711,195.629,107.776,189.563,107.776z"/>
		</g>
	</g>
	<g>
		<g>
			<path class="st6" d="M211.363,88.932v142.13c0,3.86-3.14,7.01-7.01,7.01h15c3.87,0,7.01-3.15,7.01-7.01V88.932H211.363z"/>
		</g>
	</g>
	<g>
		<g>
			<path class="st6" d="M231.343,65.112h-15c3.86,0,7.01,3.14,7.01,7.01v6.81c0,3.86-3.15,7-7.01,7h15c3.86,0,7.01-3.14,7.01-7     v-6.81C238.353,68.253,235.203,65.112,231.343,65.112z"/>
		</g>
	</g>
	<g>
		<g>
			<path class="st6" d="M219.383,41.073h-15c3.86,0,7.01,3.14,7.01,7.01v13.81h15v-13.81     C226.393,44.212,223.243,41.073,219.383,41.073z"/>
		</g>
	</g>
	<g>
		<g>
			
				<ellipse transform="matrix(0.9239 -0.3827 0.3827 0.9239 -53.0998 61.5209)" class="st5" cx="128.093" cy="164.236" rx="38.876" ry="38.876"/>
		</g>
	</g>
	<g>
		<g>
			<path class="st1" d="M128.094,123.859c-22.264,0-40.377,18.113-40.377,40.376c0,22.264,18.113,40.377,40.377,40.377     s40.376-18.113,40.376-40.377C168.47,141.972,150.357,123.859,128.094,123.859z M128.094,201.612     c-20.609,0-37.377-16.767-37.377-37.377c0-20.609,16.768-37.376,37.377-37.376s37.376,16.767,37.376,37.376     C165.47,184.845,148.703,201.612,128.094,201.612z"/>
		</g>
	</g>
	<g>
		<g>
			<polygon class="st2" points="128.018,159.626 135.742,135.263 123.052,135.263 113.093,167.747 130.055,167.747 130.286,194.05      143.093,159.626    "/>
		</g>
	</g>
	<g>
		<g>
			<path class="st1" d="M144.325,158.77c-0.28-0.403-0.74-0.644-1.231-0.644h-13.027l7.104-22.41     c0.145-0.455,0.063-0.953-0.22-1.339c-0.282-0.386-0.731-0.614-1.21-0.614h-12.689c-0.659,0-1.241,0.43-1.435,1.06l-9.958,32.484     c-0.139,0.455-0.055,0.949,0.229,1.331c0.283,0.383,0.73,0.608,1.206,0.608h15.474l0.219,24.816     c0.007,0.724,0.528,1.339,1.241,1.464c0.087,0.015,0.174,0.023,0.26,0.023c0.617,0,1.184-0.382,1.405-0.977l12.808-34.424     C144.671,159.688,144.605,159.173,144.325,158.77z M131.715,185.909l-0.16-18.175c-0.007-0.823-0.677-1.487-1.5-1.487h-14.933     l9.039-29.484h9.531l-7.104,22.41c-0.145,0.455-0.063,0.953,0.22,1.339c0.282,0.386,0.731,0.614,1.21,0.614h12.918     L131.715,185.909z"/>
		</g>
	</g>
</g>
</svg>
