<?xml version="1.0" encoding="iso-8859-1"?>
<!-- Generator: Adobe Illustrator 19.0.0, SVG Export Plug-In . SVG Version: 6.00 Build 0)  -->
<svg xmlns="http://www.w3.org/2000/svg" xmlns:xlink="http://www.w3.org/1999/xlink" version="1.1" id="Layer_1" x="0px" y="0px" viewBox="0 0 512 512" style="enable-background:new 0 0 512 512;" xml:space="preserve" width="512" height="512">
<g>
	<rect x="61" y="31" style="fill:#BBDCFF;" width="90" height="75"/>
	<rect x="361" y="31" style="fill:#9ABADB;" width="90" height="75"/>
	<rect x="181" y="31" style="fill:#BBDCFF;" width="150" height="75"/>
	<rect x="256" y="31" style="fill:#9ABADB;" width="75" height="75"/>
	<g>
		<rect x="31" y="166" style="fill:#575F64;" width="450" height="240"/>
	</g>
	<rect x="256" y="166" style="fill:#32393F;" width="225" height="240"/>
	<g>
		<path style="fill:#FFDA2D;" d="M0,391v90h512v-90H0z"/>
	</g>
	<g>
		<path style="fill:#FFDA2D;" d="M0,91v90h512V91H0z"/>
	</g>
	<polygon style="fill:#E0F4FF;" points="181,241 151,241 151,211 121,211 121,241 91,241 91,271 121,271 121,301 151,301 151,271    181,271  "/>
	<g>
		<g>
			<rect x="331" y="241" style="fill:#BBDCFF;" width="90" height="30"/>
		</g>
	</g>
	<g>
		<polygon style="fill:#FFDA2D;" points="322.301,271 256,337 236.499,356.499 215.501,335.499 249.699,301 189.699,301 256,235     275.501,215.499 296.499,236.499 262.301,271   "/>
	</g>
	<polygon style="fill:#FDBF00;" points="322.301,271 256,337 256,235 275.501,215.499 296.499,236.499 262.301,271  "/>
	<rect x="256" y="91" style="fill:#FF9100;" width="256" height="90"/>
	<rect x="256" y="391" style="fill:#FF9100;" width="256" height="90"/>
</g>















</svg>
