<svg height="512pt" viewBox="-20 0 512 512" width="512pt" xmlns="http://www.w3.org/2000/svg"><path d="m236.046875 512c86.496094 0 156.617187-70.121094 156.617187-156.617188v-180.914062h-313.230468v180.914062c0 86.496094 70.117187 156.617188 156.613281 156.617188zm0 0" fill="#dce6eb"/><path d="m444.351562 56.21875v115.109375c0 7.488281-6.066406 13.554687-13.558593 13.554687h-389.492188c-7.488281 0-13.554687-6.066406-13.554687-13.554687v-115.109375zm0 0" fill="#909ba6"/><path d="m444.351562 56.21875v96.972656h-332.714843c-7.480469 0-13.546875-6.078125-13.546875-13.558594v-83.414062zm0 0" fill="#a2abb8"/><path d="m463.710938 66.632812h-455.328126c-4.628906 0-8.382812-3.753906-8.382812-8.382812v-49.867188c0-4.628906 3.753906-8.382812 8.382812-8.382812h455.328126c4.632812 0 8.386718 3.753906 8.386718 8.382812v49.867188c0 4.628906-3.753906 8.382812-8.386718 8.382812zm0 0" fill="#5f6c75"/><path d="m351.25 344.773438c0 51.816406-34.210938 95.648437-81.28125 110.125-10.730469 3.296874-22.113281 5.074218-33.921875 5.074218-63.625 0-115.199219-51.574218-115.199219-115.199218s51.574219-115.203126 115.199219-115.203126c11.808594 0 23.191406 1.78125 33.921875 5.078126 47.070312 14.472656 81.28125 58.308593 81.28125 110.125zm0 0" fill="#4e5a61"/><path d="m351.25 344.773438c0 51.816406-34.210938 95.648437-81.28125 110.125-47.074219-14.476563-81.28125-58.308594-81.28125-110.125 0-51.816407 34.207031-95.652344 81.28125-110.125 47.070312 14.472656 81.28125 58.308593 81.28125 110.125zm0 0" fill="#5f6c75"/><path d="m262.339844 320.558594c0 14.523437-11.769532 26.292968-26.292969 26.292968-14.519531 0-26.292969-11.769531-26.292969-26.292968 0-14.519532 11.773438-26.292969 26.292969-26.292969 14.523437 0 26.292969 11.773437 26.292969 26.292969zm0 0" fill="#7e8b96"/></svg>