<svg height="512pt" viewBox="-67 0 512 512" width="512pt" xmlns="http://www.w3.org/2000/svg"><path d="m112.59375 512h-60.066406c-1.789063 0-3.242188-1.453125-3.242188-3.242188v-64.753906h66.550782v64.753906c0 1.792969-1.453126 3.242188-3.242188 3.242188zm0 0" fill="#2cb3cd"/><path d="m325.082031 512h-60.0625c-1.792969 0-3.242187-1.453125-3.242187-3.242188v-64.753906h66.550781v64.753906c0 1.792969-1.453125 3.242188-3.246094 3.242188zm0 0" fill="#2cb3cd"/><path d="m377.609375 19.539062v435.308594c0 10.789063-8.75 19.539063-19.539063 19.539063h-338.53125c-10.789062 0-19.539062-8.75-19.539062-19.539063v-435.308594c0-10.789062 8.75-19.539062 19.539062-19.539062h338.53125c10.789063 0 19.539063 8.75 19.539063 19.539062zm0 0" fill="#7cd2e3"/><path d="m377.609375 19.539062v435.308594c0 10.789063-8.75 19.539063-19.539063 19.539063h-311.175781c-10.792969 0-19.542969-8.75-19.542969-19.539063v-435.308594c0-10.789062 8.75-19.539062 19.542969-19.539062h311.175781c10.789063 0 19.539063 8.75 19.539063 19.539062zm0 0" fill="#a6e0ec"/><path d="m326.269531 255.46875c0 75.921875-61.542969 137.464844-137.464843 137.464844-75.921876 0-137.464844-61.542969-137.464844-137.464844s61.542968-137.464844 137.464844-137.464844c75.921874 0 137.464843 61.542969 137.464843 137.464844zm0 0" fill="#dce6eb"/><path d="m287.332031 255.46875c0 41.707031-26.050781 77.445312-62.738281 91.796875-11.09375 4.34375-23.164062 6.730469-35.789062 6.730469-47.226563 0-86.796876-33.394532-96.328126-77.808594-1.4375-6.675781-2.199218-13.613281-2.199218-20.71875 0-54.332031 44.195312-98.527344 98.527344-98.527344 2.667968 0 5.300781.105469 7.917968.324219 48.914063 3.894531 87.871094 43.683594 90.472656 92.964844.09375 1.738281.136719 3.476562.136719 5.238281zm0 0" fill="#60c8dd"/><path d="m287.332031 255.46875c0 41.707031-26.050781 77.445312-62.738281 91.796875-43.675781-3.476563-79.421875-35.582031-88.410156-77.484375-1.4375-6.675781-2.199219-13.613281-2.199219-20.71875 0-41.707031 26.050781-77.445312 62.738281-91.796875 48.914063 3.894531 87.871094 43.683594 90.472656 92.964844.09375 1.738281.136719 3.476562.136719 5.238281zm0 0" fill="#7cd2e3"/><path d="m377.609375 19.539062v58.855469h-377.609375v-58.855469c0-10.789062 8.75-19.539062 19.539062-19.539062h338.53125c10.789063 0 19.539063 8.75 19.539063 19.539062zm0 0" fill="#60c8dd"/><path d="m164.167969 54.175781h-122.230469c-8.054688 0-14.585938-6.53125-14.585938-14.582031 0-8.054688 6.53125-14.585938 14.585938-14.585938h122.230469c8.050781 0 14.582031 6.53125 14.582031 14.585938 0 8.050781-6.53125 14.582031-14.582031 14.582031zm0 0" fill="#dce6eb"/><g fill="#f44545"><path d="m237.078125 39.59375c0 9.011719-7.304687 16.316406-16.316406 16.316406-9.015625 0-16.320313-7.304687-16.320313-16.316406 0-9.015625 7.304688-16.320312 16.320313-16.320312 9.011719 0 16.316406 7.304687 16.316406 16.320312zm0 0"/><path d="m295.199219 39.59375c0 9.011719-7.304688 16.316406-16.316407 16.316406-9.015624 0-16.320312-7.304687-16.320312-16.316406 0-9.015625 7.304688-16.320312 16.320312-16.320312 9.011719 0 16.316407 7.304687 16.316407 16.320312zm0 0"/><path d="m353.320312 39.59375c0 9.011719-7.304687 16.316406-16.320312 16.316406-9.011719 0-16.316406-7.304687-16.316406-16.316406 0-9.015625 7.304687-16.320312 16.316406-16.320312 9.015625 0 16.320312 7.304687 16.320312 16.320312zm0 0"/></g><path d="m287.332031 255.46875c0 54.332031-44.195312 98.527344-98.527343 98.527344-47.226563 0-86.796876-33.394532-96.328126-77.808594l56.757813-22.542969c18.625-7.394531 39.621094-5.78125 56.902344 4.367188 10.144531 5.957031 21.519531 8.945312 32.917969 8.945312 10.238281 0 20.507812-2.414062 29.894531-7.28125l18.246093-9.445312c.09375 1.738281.136719 3.476562.136719 5.238281zm0 0" fill="#2cb3cd"/><path d="m337.234375 450.253906h-49.5c-4.886719 0-8.851563-3.964844-8.851563-8.855468v-20.832032c0-4.890625 3.964844-8.855468 8.851563-8.855468h49.5c4.890625 0 8.855469 3.964843 8.855469 8.855468v20.832032c0 4.890624-3.964844 8.855468-8.855469 8.855468zm0 0" fill="#269ab1"/><path d="m46.894531 0c-10.792969 0-19.542969 8.75-19.542969 19.539062v58.855469h-27.351562v-58.855469c0-10.789062 8.75-19.539062 19.539062-19.539062zm0 0" fill="#2cb3cd"/><path d="m134.535156 259.480469-42.058594 16.707031c12.660157 59.007812 75.605469 93.207031 132.117188 71.078125-47.53125-3.785156-85.203125-41.320313-90.058594-87.785156zm0 0" fill="#269ab1"/></svg>