<?xml version="1.0" encoding="iso-8859-1"?>
<!-- Generator: Adobe Illustrator 18.0.0, SVG Export Plug-In . SVG Version: 6.00 Build 0)  -->
<!DOCTYPE svg PUBLIC "-//W3C//DTD SVG 1.1//EN" "http://www.w3.org/Graphics/SVG/1.1/DTD/svg11.dtd">
<svg version="1.1" id="Capa_1" xmlns="http://www.w3.org/2000/svg" xmlns:xlink="http://www.w3.org/1999/xlink" x="0px" y="0px"
	 viewBox="0 0 60.002 60.002" style="enable-background:new 0 0 60.002 60.002;" xml:space="preserve">
<g>
	<path d="M59.795,26.568c-0.401-1.697-1.364-3.155-2.575-3.902c-0.813-0.499-1.68-0.657-2.509-0.462
		c-0.189,0.045-0.371,0.115-0.548,0.198c-2.336-5.685-5.98-9.363-9.727-11.736l1.359-2.719c0.247-0.494,0.047-1.095-0.447-1.342
		c-0.494-0.246-1.094-0.047-1.342,0.447l-1.302,2.604c-0.617-0.328-1.231-0.626-1.838-0.892l0.983-2.948
		c0.175-0.524-0.108-1.091-0.632-1.265c-0.527-0.177-1.09,0.108-1.265,0.632l-0.948,2.844c-0.693-0.248-1.366-0.461-2.012-0.642
		l0.856-2.569c0.175-0.524-0.108-1.091-0.632-1.265c-0.528-0.175-1.09,0.108-1.265,0.632l-0.908,2.723
		C33.779,6.64,32.7,6.495,31.9,6.417V4.5c0-0.553-0.447-1-1-1s-1,0.447-1,1v1.843c-0.525,0.026-1.441,0.097-2.632,0.284
		l-0.382-2.291c-0.09-0.545-0.607-0.916-1.15-0.822c-0.545,0.091-0.913,0.606-0.822,1.15l0.39,2.339
		c-1.072,0.242-2.258,0.573-3.509,1.02l-0.947-2.84c-0.174-0.523-0.737-0.809-1.265-0.632c-0.523,0.174-0.807,0.74-0.632,1.265
		l0.981,2.943c-0.863,0.378-1.742,0.822-2.621,1.327l-1.517-3.034c-0.248-0.494-0.847-0.693-1.342-0.447
		c-0.494,0.247-0.694,0.848-0.447,1.342l1.6,3.201c-0.881,0.602-1.749,1.288-2.594,2.05l-2.405-2.405
		c-0.391-0.391-1.023-0.391-1.414,0s-0.391,1.023,0,1.414l2.387,2.387c-3.075,3.273-5.646,7.835-6.826,14.213
		c-0.015,0.083-0.025,0.166-0.04,0.249c-0.254-0.07-0.512-0.118-0.776-0.118C1.73,28.938,0,31.321,0,34.363
		c0,3.041,1.73,5.424,3.939,5.424c0.404,0,0.798-0.103,1.177-0.267c0.701,2.671,1.863,5.178,3.458,7.378
		c3.194,4.404,9.466,9.605,21.267,9.605c0.182,0,0.366-0.001,0.551-0.004c0.186,0.003,0.368,0.004,0.551,0.004
		c11.798,0,18.071-5.202,21.267-9.605c2.879-3.969,4.344-8.942,4.23-14.07c0.035,0.001,0.07,0.007,0.104,0.007
		c0.227,0,0.451-0.025,0.672-0.078C59.363,32.245,60.496,29.526,59.795,26.568z M4.674,37.489c-0.206,0.166-0.456,0.298-0.734,0.298
		C3.022,37.787,2,36.38,2,34.363c0-2.019,1.022-3.425,1.939-3.425c0.167,0,0.335,0.047,0.504,0.14
		c-0.049,0.531-0.081,1.062-0.096,1.591c-0.001,0.04-0.001,0.08-0.002,0.12c-0.01,0.437-0.009,0.872,0.004,1.306
		c0.004,0.143,0.009,0.286,0.015,0.429c0.016,0.351,0.041,0.699,0.072,1.048c0.013,0.148,0.022,0.297,0.038,0.445
		c0.047,0.434,0.105,0.865,0.175,1.293C4.659,37.369,4.664,37.429,4.674,37.489z M50.591,45.724
		c-4.316,5.949-11.144,8.904-20.185,8.775h-0.027c-9.109,0.117-15.869-2.826-20.185-8.775c-2.062-2.843-3.329-6.257-3.726-9.868
		c-0.008-0.076-0.009-0.153-0.017-0.229c-0.057-0.572-0.089-1.149-0.102-1.728c-0.005-0.251-0.001-0.504,0.003-0.756
		c0.004-0.405,0.02-0.81,0.046-1.216c0.02-0.299,0.04-0.597,0.071-0.896c0.064-0.62,0.138-1.24,0.252-1.86
		c1.097-5.928,3.438-10.163,6.236-13.199l1.235,1.235c0.195,0.195,0.451,0.293,0.707,0.293s0.512-0.098,0.707-0.293
		c0.391-0.391,0.391-1.023,0-1.414l-1.23-1.23c0.684-0.619,1.384-1.181,2.095-1.683l0.534,1.067
		c0.176,0.351,0.528,0.553,0.896,0.553c0.15,0,0.303-0.034,0.446-0.105c0.494-0.247,0.694-0.848,0.447-1.342l-0.629-1.257
		c0.795-0.464,1.59-0.872,2.372-1.22l0.414,1.241c0.14,0.419,0.529,0.684,0.948,0.684c0.104,0,0.211-0.017,0.316-0.052
		c0.523-0.174,0.807-0.74,0.632-1.265l-0.45-1.35c1.148-0.407,2.236-0.7,3.224-0.917l0.291,1.748
		c0.081,0.489,0.505,0.836,0.985,0.836c0.055,0,0.109-0.004,0.165-0.014c0.545-0.091,0.913-0.606,0.822-1.15L27.59,8.558
		c1.021-0.146,1.824-0.201,2.31-0.22V10.5c0,0.553,0.447,1,1,1s1-0.447,1-1V8.427c0.666,0.065,1.52,0.177,2.514,0.37l-0.462,1.386
		c-0.175,0.524,0.108,1.091,0.632,1.265c0.105,0.035,0.212,0.052,0.316,0.052c0.419,0,0.809-0.265,0.948-0.684l0.521-1.562
		c0.645,0.174,1.319,0.383,2.016,0.631l-0.433,1.298c-0.175,0.524,0.108,1.091,0.632,1.265c0.105,0.035,0.212,0.052,0.316,0.052
		c0.419,0,0.809-0.265,0.948-0.684l0.395-1.185c0.177,0.079,0.353,0.154,0.532,0.238c0.36,0.171,0.707,0.353,1.053,0.538
		l-0.823,1.646c-0.247,0.494-0.047,1.095,0.447,1.342c0.144,0.071,0.296,0.105,0.446,0.105c0.367,0,0.72-0.202,0.896-0.553
		l0.763-1.527c4.174,2.69,7.196,6.517,9.039,11.431l-0.003,0.004l0.182,0.512c0.272,0.766,0.509,1.532,0.719,2.308
		c0.013,0.049,0.026,0.098,0.038,0.147c0.204,0.769,0.382,1.548,0.53,2.348c0.122,0.658,0.203,1.317,0.268,1.975
		c0.013,0.128,0.029,0.253,0.04,0.382C54.791,36.693,53.464,41.763,50.591,45.724z M56.751,30.812c-0.136,0.031-0.282,0.03-0.436,0
		c-0.004-0.036-0.011-0.069-0.015-0.105c-0.068-0.631-0.153-1.262-0.269-1.892c-0.001-0.003-0.001-0.006-0.001-0.009
		c-0.002-0.012-0.006-0.023-0.008-0.035c-0.141-0.759-0.306-1.487-0.485-2.195c-0.02-0.079-0.045-0.157-0.066-0.237
		c-0.18-0.692-0.379-1.359-0.593-2.004c-0.005-0.014-0.008-0.029-0.013-0.043c0.101-0.07,0.204-0.117,0.309-0.143
		c0.383-0.091,0.752,0.069,0.995,0.22c0.758,0.467,1.401,1.486,1.68,2.66C58.314,28.993,57.645,30.599,56.751,30.812z"/>
	<path d="M42,37.698H20c-0.553,0-1,0.447-1,1s0.447,1,1,1h11V46.5c0,2.757,2.243,5,5,5h1c2.757,0,5-2.243,5-5v-6.802
		c0.553,0,1-0.447,1-1S42.553,37.698,42,37.698z M40,46.5c0,1.654-1.346,3-3,3h-1c-1.654,0-3-1.346-3-3v-6.8l1.233,0.002
		c0.362,0.001,0.747,0.001,1.137,0.002c0.109,0.725,0.164,2.211,0.163,4.44v0.165c0,0.553,0.447,1,1,1s1-0.447,1-1v-0.164
		c0-0.9,0.001-2.262-0.067-3.435c-0.019-0.325-0.04-0.668-0.077-1.003c0.965,0.001,1.886,0,2.612-0.002V46.5z"/>
	<path d="M36,16.5c-3.598,0-6.7,2.126-8.139,5.184C26.61,19.77,24.452,18.5,22,18.5c-3.859,0-7,3.141-7,7s3.141,7,7,7
		c2.452,0,4.61-1.27,5.861-3.184C29.3,32.373,32.402,34.5,36,34.5c4.963,0,9-4.037,9-9S40.963,16.5,36,16.5z M36,18.5
		c3.164,0,5.842,2.113,6.705,5h-13.41C30.158,20.612,32.836,18.5,36,18.5z M22,20.5c2.045,0,3.802,1.237,4.576,3h-9.152
		C18.198,21.737,19.955,20.5,22,20.5z M22,30.5c-2.757,0-5-2.243-5-5h10C27,28.256,24.757,30.5,22,30.5z M36,32.5
		c-3.859,0-7-3.141-7-7h14C43,29.359,39.859,32.5,36,32.5z"/>
	<circle cx="23" cy="27.499" r="1"/>
	<circle cx="33.5" cy="27.999" r="1.5"/>
</g>
<g>
</g>
<g>
</g>
<g>
</g>
<g>
</g>
<g>
</g>
<g>
</g>
<g>
</g>
<g>
</g>
<g>
</g>
<g>
</g>
<g>
</g>
<g>
</g>
<g>
</g>
<g>
</g>
<g>
</g>
</svg>
